<svg width="30" height="30" viewBox="0 0 39 40" fill="none" xmlns="http://www.w3.org/2000/svg">
<path fill-rule="evenodd" clip-rule="evenodd" d="M26 15.125C26 18.7148 23.0898 21.625 19.5 21.625C15.9101 21.625 13 18.7148 13 15.125C13 11.5351 15.9101 8.625 19.5 8.625C23.0898 8.625 26 11.5351 26 15.125ZM22.75 15.125C22.75 16.92 21.295 18.375 19.5 18.375C17.705 18.375 16.25 16.92 16.25 15.125C16.25 13.3301 17.705 11.875 19.5 11.875C21.295 11.875 22.75 13.3301 22.75 15.125Z" fill="#545454"/>
<path fill-rule="evenodd" clip-rule="evenodd" d="M19.5 2.125C9.62791 2.125 1.625 10.1279 1.625 20C1.625 29.872 9.62791 37.875 19.5 37.875C29.372 37.875 37.375 29.872 37.375 20C37.375 10.1279 29.372 2.125 19.5 2.125ZM4.875 20C4.875 23.3966 6.03289 26.5228 7.97547 29.0053C10.6477 25.507 14.8627 23.25 19.6048 23.25C24.2853 23.25 28.4524 25.4488 31.1293 28.8697C33.0086 26.4095 34.125 23.3351 34.125 20C34.125 11.9228 27.5772 5.375 19.5 5.375C11.4228 5.375 4.875 11.9228 4.875 20ZM19.5 34.625C16.0059 34.625 12.7979 33.3996 10.2825 31.3552C12.3395 28.4195 15.748 26.5 19.6048 26.5C23.4137 26.5 26.7854 28.3722 28.8499 31.2465C26.3151 33.356 23.0557 34.625 19.5 34.625Z" fill="#545454"/>
</svg>
